<svg version="1.1" id="Layer_1" xmlns="http://www.w3.org/2000/svg" xmlns:xlink="http://www.w3.org/1999/xlink" x="0px" y="0px" width="100%" viewBox="0 0 1252 592" enable-background="new 0 0 1252 592" xml:space="preserve">

<path fill="#A9B4FF" opacity="1.000000" stroke="none" d="&#xA;M738.568115,32.642796 &#xA;&#x9;C753.206482,30.031559 767.397400,27.408573 781.619385,24.966309 &#xA;&#x9;C790.251892,23.483896 798.921692,22.205776 807.594116,20.972162 &#xA;&#x9;C817.542480,19.557041 827.497131,18.162275 837.476685,16.995283 &#xA;&#x9;C850.462463,15.476744 863.486755,14.289412 876.474670,12.787788 &#xA;&#x9;C926.561096,6.996937 976.748535,7.708538 1026.881470,11.351738 &#xA;&#x9;C1043.729492,12.576099 1060.446777,16.178377 1077.093018,19.374361 &#xA;&#x9;C1086.518433,21.183966 1095.935669,23.698364 1104.897217,27.103970 &#xA;&#x9;C1117.992554,32.080502 1130.593384,38.341282 1143.557251,43.685555 &#xA;&#x9;C1155.788208,48.727745 1166.353882,56.394444 1176.625366,64.389198 &#xA;&#x9;C1188.452026,73.594543 1199.343506,83.860977 1207.365479,96.791725 &#xA;&#x9;C1211.228760,103.019073 1215.885132,108.806313 1219.249390,115.277855 &#xA;&#x9;C1223.340210,123.146622 1226.793457,131.397766 1229.894409,139.717590 &#xA;&#x9;C1233.961914,150.630325 1236.309937,161.972183 1238.477783,173.474579 &#xA;&#x9;C1241.864136,191.440491 1241.587280,209.399017 1241.403076,227.427139 &#xA;&#x9;C1241.316528,235.904877 1240.821533,244.410095 1239.916016,252.838898 &#xA;&#x9;C1239.011230,261.260376 1237.362793,269.601959 1235.865723,279.083954 &#xA;&#x9;C1233.869751,276.739563 1232.045288,275.345490 1231.226929,273.504272 &#xA;&#x9;C1227.880981,265.976471 1224.472412,258.440765 1221.767822,250.670959 &#xA;&#x9;C1216.271484,234.880203 1211.770874,218.723206 1205.787598,203.128448 &#xA;&#x9;C1201.713379,192.509048 1196.790161,181.936218 1190.476807,172.530457 &#xA;&#x9;C1183.630249,162.330124 1174.875366,153.379715 1166.685791,144.120331 &#xA;&#x9;C1158.586304,134.962860 1148.265503,128.503250 1137.901489,122.352631 &#xA;&#x9;C1130.041748,117.688171 1121.723267,113.647179 1113.255859,110.194679 &#xA;&#x9;C1103.112183,106.058647 1092.684082,102.545647 1082.204102,99.334457 &#xA;&#x9;C1075.297852,97.218323 1068.128906,95.843430 1060.996216,94.607086 &#xA;&#x9;C1046.265381,92.053726 1031.526733,89.442360 1016.700745,87.575043 &#xA;&#x9;C1006.483032,86.288139 996.120544,85.898193 985.809692,85.653290 &#xA;&#x9;C958.611206,85.007233 931.396545,84.017044 904.205750,84.398788 &#xA;&#x9;C883.207214,84.693596 862.222534,86.690437 841.255676,88.252213 &#xA;&#x9;C828.573120,89.196907 815.913147,90.562965 803.284485,92.083862 &#xA;&#x9;C785.120728,94.271355 766.988342,96.724907 748.855286,99.159576 &#xA;&#x9;C740.061829,100.340263 731.295349,101.723061 722.520203,103.038254 &#xA;&#x9;C713.546387,104.383224 704.566956,105.696091 695.608521,107.137939 &#xA;&#x9;C688.167297,108.335609 680.745056,109.656387 673.328491,111.000313 &#xA;&#x9;C660.234924,113.372932 647.146362,115.773758 634.067444,118.225311 &#xA;&#x9;C627.939880,119.373863 621.848206,120.712730 615.725342,121.887367 &#xA;&#x9;C601.357666,124.643730 586.961914,127.257462 572.613892,130.111679 &#xA;&#x9;C561.092957,132.403503 549.617004,134.924957 538.136536,137.415741 &#xA;&#x9;C526.612000,139.916092 515.096558,142.460236 503.595795,145.067505 &#xA;&#x9;C492.948242,147.481384 482.320129,149.981766 471.692841,152.484131 &#xA;&#x9;C455.468414,156.304413 439.244995,160.129669 423.034790,164.009705 &#xA;&#x9;C412.066345,166.635056 401.109650,169.311432 390.168671,172.048889 &#xA;&#x9;C375.636658,175.684814 361.117249,179.372025 346.607391,183.095474 &#xA;&#x9;C336.645966,185.651688 326.713593,188.320862 316.761810,190.915009 &#xA;&#x9;C301.275909,194.951782 285.761261,198.880783 270.302582,203.018921 &#xA;&#x9;C257.067169,206.561890 243.900070,210.359283 230.690186,213.998520 &#xA;&#x9;C216.052612,218.031082 201.375900,221.923676 186.762634,226.041885 &#xA;&#x9;C174.090775,229.612991 161.492783,233.445374 148.845078,237.103256 &#xA;&#x9;C139.608475,239.774612 130.324799,242.283951 121.096893,244.984390 &#xA;&#x9;C108.616943,248.636520 96.175529,252.420120 83.708023,256.115082 &#xA;&#x9;C70.309250,260.086029 56.857277,263.883636 43.509457,268.018188 &#xA;&#x9;C34.874733,270.692841 26.414873,273.927795 17.813009,276.715271 &#xA;&#x9;C15.178822,277.568909 12.333715,277.771667 9.585199,278.272491 &#xA;&#x9;C9.433098,277.871277 9.280996,277.470093 9.128895,277.068909 &#xA;&#x9;C16.252300,273.648682 23.381689,270.240875 30.497444,266.804840 &#xA;&#x9;C37.692863,263.330322 44.827103,259.724762 52.077709,256.370178 &#xA;&#x9;C57.894398,253.679001 63.841869,251.269958 69.736923,248.748840 &#xA;&#x9;C81.882690,243.554565 93.999466,238.290497 106.192169,233.208694 &#xA;&#x9;C113.808556,230.034241 121.584770,227.244263 129.212326,224.095337 &#xA;&#x9;C140.383423,219.483551 151.423218,214.549667 162.634674,210.040771 &#xA;&#x9;C173.779236,205.558792 185.094376,201.502930 196.284210,197.130966 &#xA;&#x9;C208.114578,192.508713 219.831146,187.591721 231.697693,183.066437 &#xA;&#x9;C243.146332,178.700500 254.759521,174.767624 266.232971,170.464630 &#xA;&#x9;C277.634857,166.188431 288.929749,161.627335 300.319183,157.317078 &#xA;&#x9;C304.701691,155.658569 309.225098,154.375351 313.667847,152.872482 &#xA;&#x9;C326.359283,148.579285 339.042023,144.260498 351.728607,139.952942 &#xA;&#x9;C363.349213,136.007339 374.991821,132.125351 386.585266,128.101486 &#xA;&#x9;C398.869598,123.837830 411.042389,119.243546 423.385529,115.161530 &#xA;&#x9;C433.652588,111.766098 444.132904,109.021286 454.452179,105.776611 &#xA;&#x9;C468.445496,101.376701 482.353455,96.705681 496.343475,92.294968 &#xA;&#x9;C501.615021,90.632980 507.009491,89.358719 512.354614,87.932762 &#xA;&#x9;C524.863586,84.595619 537.391663,81.329033 549.883850,77.930290 &#xA;&#x9;C563.114868,74.330551 576.295288,70.544075 589.531860,66.965508 &#xA;&#x9;C599.602234,64.242935 609.702454,61.621838 619.832458,59.130676 &#xA;&#x9;C631.287354,56.313660 642.788452,53.683636 654.273193,50.988392 &#xA;&#x9;C664.288086,48.638096 674.287537,46.216179 684.331421,43.996254 &#xA;&#x9;C696.777405,41.245407 709.258728,38.653576 721.731873,36.026726 &#xA;&#x9;C727.190125,34.877213 732.665894,33.811165 738.568115,32.642796 &#xA;z"></path>
<path fill="#FD5266" opacity="1.000000" stroke="none" d="&#xA;M569.755127,235.092484 &#xA;&#x9;C570.935913,234.363937 572.027039,233.318100 573.311157,232.955215 &#xA;&#x9;C588.889771,228.552567 604.427429,223.975754 620.118774,220.010468 &#xA;&#x9;C632.352722,216.918900 644.714661,214.195389 657.150330,212.074387 &#xA;&#x9;C673.548096,209.277603 690.090454,207.340698 706.540649,204.836838 &#xA;&#x9;C736.800476,200.231049 767.193420,201.567490 797.495972,203.443344 &#xA;&#x9;C813.559998,204.437775 829.541809,207.418961 845.441711,210.186600 &#xA;&#x9;C857.054138,212.207932 868.628601,214.810318 879.939148,218.114868 &#xA;&#x9;C895.247559,222.587524 910.444763,227.556335 925.392700,233.111420 &#xA;&#x9;C937.572571,237.637848 949.704773,242.606567 961.160706,248.692184 &#xA;&#x9;C977.684265,257.469757 993.602295,267.392151 1009.721863,276.922180 &#xA;&#x9;C1014.444214,279.714142 1018.973572,282.832458 1023.639282,286.256409 &#xA;&#x9;C1017.930908,290.040710 1012.289062,293.590515 1006.391663,296.647461 &#xA;&#x9;C997.377319,301.320099 988.142273,305.565338 979.094604,310.175995 &#xA;&#x9;C975.863831,311.822418 972.905762,314.003876 969.539307,315.937897 &#xA;&#x9;C968.878357,315.964874 968.501160,315.995056 967.885742,315.870026 &#xA;&#x9;C960.740845,313.875092 953.916565,311.595337 946.911011,310.284790 &#xA;&#x9;C931.052002,307.318054 915.152649,304.476624 899.176270,302.256165 &#xA;&#x9;C886.070679,300.434692 872.850952,299.272430 859.643494,298.394135 &#xA;&#x9;C847.864075,297.610809 836.032166,297.616699 823.864380,297.193604 &#xA;&#x9;C822.782715,297.018982 822.060059,296.925049 821.080078,296.578491 &#xA;&#x9;C819.945374,295.601044 819.175171,294.639771 818.174744,294.186646 &#xA;&#x9;C801.771667,286.757172 785.604492,278.706696 768.833862,272.218872 &#xA;&#x9;C754.207886,266.560699 738.917358,262.603790 723.872131,258.054871 &#xA;&#x9;C718.366821,256.390350 712.730530,255.152664 707.140137,253.776703 &#xA;&#x9;C695.252075,250.850708 683.393860,247.786972 671.446960,245.122742 &#xA;&#x9;C664.224304,243.512024 656.892151,242.277084 649.549194,241.346970 &#xA;&#x9;C636.600464,239.706833 623.631592,238.094376 610.623291,237.091522 &#xA;&#x9;C597.029968,236.043579 583.380188,235.728134 569.755127,235.092484 &#xA;z"></path>
<path fill="#8FFF53" opacity="1.000000" stroke="none" d="&#xA;M930.419250,399.849548 &#xA;&#x9;C922.471436,404.659943 914.594604,409.593140 906.551636,414.238770 &#xA;&#x9;C900.907898,417.498596 895.059753,420.408936 889.264526,423.401001 &#xA;&#x9;C874.804321,430.866638 860.426514,438.502808 845.811829,445.654144 &#xA;&#x9;C836.293762,450.311615 826.457703,454.331879 816.693604,458.471313 &#xA;&#x9;C803.075012,464.244904 789.411133,469.913391 775.721741,475.517303 &#xA;&#x9;C771.625977,477.193939 767.414001,478.609222 763.196838,479.961945 &#xA;&#x9;C753.375244,483.112213 743.528809,486.186371 733.672485,489.226746 &#xA;&#x9;C722.469116,492.682678 711.332397,496.402771 700.004883,499.395538 &#xA;&#x9;C687.310730,502.749359 674.435364,505.417297 660.946411,508.591309 &#xA;&#x9;C659.531677,508.812653 658.809326,508.826355 657.776367,508.604736 &#xA;&#x9;C617.626709,500.933533 579.072632,489.267151 542.262085,473.164124 &#xA;&#x9;C544.852539,472.421448 546.987854,471.610077 549.195374,471.131165 &#xA;&#x9;C561.876221,468.380127 574.601562,465.829529 587.257874,462.971832 &#xA;&#x9;C598.093262,460.525360 608.897461,457.915100 619.640625,455.092438 &#xA;&#x9;C633.399902,451.477234 647.106262,447.654388 660.793884,443.774597 &#xA;&#x9;C671.845825,440.641937 682.840759,437.307678 693.851746,434.031708 &#xA;&#x9;C698.577820,432.625580 703.346680,431.323914 707.979370,429.651520 &#xA;&#x9;C716.533142,426.563629 724.978455,423.176941 733.510559,420.027466 &#xA;&#x9;C741.954834,416.910431 750.513184,414.094849 758.908447,410.854218 &#xA;&#x9;C770.635071,406.327667 782.255432,401.526062 793.923889,396.848541 &#xA;&#x9;C801.195801,393.933441 808.528137,391.160797 815.732117,388.086853 &#xA;&#x9;C823.805481,384.642029 831.735840,380.863525 839.780762,377.350159 &#xA;&#x9;C849.499939,373.105621 859.325500,369.100616 868.987976,364.733093 &#xA;&#x9;C871.366394,363.658081 873.291138,361.579559 875.710022,359.985626 &#xA;&#x9;C876.564819,360.052795 877.134033,360.096649 877.764160,360.501770 &#xA;&#x9;C891.117920,370.453308 904.451172,379.988190 917.680542,389.665314 &#xA;&#x9;C922.064331,392.871979 926.180603,396.444397 930.419250,399.849548 &#xA;z"></path>
<path fill="#FD5266" opacity="1.000000" stroke="none" d="&#xA;M348.021393,346.157257 &#xA;&#x9;C352.018585,343.141296 355.811462,339.795959 360.048981,337.167389 &#xA;&#x9;C376.910431,326.707947 393.797729,316.280090 410.901794,306.225586 &#xA;&#x9;C421.111023,300.224152 431.724274,294.907074 442.186157,289.339142 &#xA;&#x9;C452.878143,283.648743 463.495026,277.800110 474.358459,272.455078 &#xA;&#x9;C481.779938,268.803558 489.582184,265.929932 497.182281,262.634857 &#xA;&#x9;C499.103180,261.802063 500.901855,260.687317 503.348633,259.420868 &#xA;&#x9;C504.634460,259.056305 505.328369,258.973053 506.472351,258.983948 &#xA;&#x9;C527.770508,260.002472 548.630676,260.717499 569.463135,261.914978 &#xA;&#x9;C587.302185,262.940369 605.127502,264.319489 622.923706,265.930695 &#xA;&#x9;C632.764160,266.821655 642.582886,268.219788 652.319824,269.915344 &#xA;&#x9;C663.939819,271.938843 675.512390,274.304016 687.011414,276.932556 &#xA;&#x9;C697.706726,279.377441 708.393616,281.988037 718.874878,285.207153 &#xA;&#x9;C731.372314,289.045441 743.646851,293.609253 755.589355,297.939636 &#xA;&#x9;C752.116272,298.577301 749.093201,299.363312 746.023438,299.652252 &#xA;&#x9;C730.553345,301.108246 715.056702,302.293121 699.598022,303.855988 &#xA;&#x9;C689.113892,304.915955 678.666199,306.363464 668.222229,307.784851 &#xA;&#x9;C659.093689,309.027161 649.962646,310.299438 640.887695,311.875000 &#xA;&#x9;C628.464600,314.031799 616.078125,316.409698 603.704285,318.837189 &#xA;&#x9;C590.327759,321.461365 576.956543,324.125275 563.634155,327.008453 &#xA;&#x9;C552.430420,329.433075 541.263184,332.050476 530.146545,334.847778 &#xA;&#x9;C515.737183,338.473572 501.391266,342.351990 487.023193,346.141235 &#xA;&#x9;C474.825928,349.358002 462.626312,352.566620 450.447388,355.851685 &#xA;&#x9;C445.217346,357.262421 439.992462,358.720612 434.843994,360.398804 &#xA;&#x9;C425.440155,363.464081 416.104736,366.738647 406.722015,369.869690 &#xA;&#x9;C399.483795,372.285187 392.216858,374.614777 384.646240,376.980042 &#xA;&#x9;C383.908508,377.000793 383.487244,377.024139 382.999298,376.704712 &#xA;&#x9;C382.521729,375.870331 382.175568,375.300629 381.690491,374.898499 &#xA;&#x9;C370.467773,365.594543 359.229980,356.308746 348.003906,346.804108 &#xA;&#x9;C348.012848,346.588593 348.021393,346.157257 348.021393,346.157257 &#xA;z"></path>
<path fill="#FB7768" opacity="1.000000" stroke="none" d="&#xA;M658.086975,508.840088 &#xA;&#x9;C658.809326,508.826355 659.531677,508.812653 660.613159,508.783081 &#xA;&#x9;C675.178528,511.221741 689.358093,513.846863 703.599792,516.074036 &#xA;&#x9;C714.028809,517.705017 724.525696,518.935059 735.017273,520.124023 &#xA;&#x9;C748.263428,521.625061 761.526855,522.988159 774.797729,524.253906 &#xA;&#x9;C789.447754,525.651184 804.110474,526.920715 818.775391,528.154541 &#xA;&#x9;C835.441650,529.556641 852.127930,530.732178 868.783569,532.247070 &#xA;&#x9;C879.788879,533.248047 890.755615,534.673157 902.404358,535.983154 &#xA;&#x9;C899.617065,537.697815 897.119690,539.642517 894.311218,540.882996 &#xA;&#x9;C886.819214,544.192139 879.199646,547.213684 871.619446,550.321777 &#xA;&#x9;C860.629517,554.827881 849.659607,559.385559 838.618164,563.762207 &#xA;&#x9;C834.530029,565.382751 830.326294,566.799927 826.066956,567.884277 &#xA;&#x9;C812.356445,571.374451 798.673584,575.041199 784.831787,577.928345 &#xA;&#x9;C771.158142,580.780457 757.224548,582.384460 743.547791,585.223633 &#xA;&#x9;C723.134277,589.461182 702.526367,587.779053 681.984985,588.006836 &#xA;&#x9;C673.342529,588.102722 664.609497,587.903076 656.060547,586.764648 &#xA;&#x9;C642.206726,584.919678 628.406677,582.505676 614.707092,579.724915 &#xA;&#x9;C605.263672,577.808105 595.872070,575.332031 586.738770,572.267029 &#xA;&#x9;C574.887512,568.289978 563.281067,563.568542 551.636841,558.995422 &#xA;&#x9;C544.326050,556.124146 536.940552,553.330750 529.943542,549.799255 &#xA;&#x9;C519.380859,544.468140 509.114685,538.547363 498.750732,532.826050 &#xA;&#x9;C495.188141,530.859314 491.710052,528.739502 488.449341,526.360291 &#xA;&#x9;C509.361664,525.343506 530.018005,524.656616 550.674255,523.967102 &#xA;&#x9;C551.339294,523.944824 552.005920,523.921143 552.667603,523.855713 &#xA;&#x9;C565.625854,522.575256 578.584778,521.300659 591.540710,519.996643 &#xA;&#x9;C596.479187,519.499512 601.449646,519.164673 606.337036,518.346802 &#xA;&#x9;C616.028320,516.725098 625.671509,514.816711 635.335510,513.031494 &#xA;&#x9;C642.918640,511.630707 650.503113,510.236969 658.086975,508.840088 &#xA;z"></path>
<path fill="#FB7768" opacity="1.000000" stroke="none" d="&#xA;M383.065979,377.047455 &#xA;&#x9;C383.487244,377.024139 383.908508,377.000793 384.756958,377.313965 &#xA;&#x9;C391.583710,382.665833 397.865387,387.841309 404.410339,392.659119 &#xA;&#x9;C414.294250,399.934753 424.199158,407.203888 434.395538,414.026886 &#xA;&#x9;C445.308624,421.329376 456.480042,428.259735 467.710388,435.069397 &#xA;&#x9;C475.364960,439.710876 483.270264,443.947449 491.143585,448.217346 &#xA;&#x9;C500.091675,453.070068 509.076324,457.861389 518.144104,462.485229 &#xA;&#x9;C525.360413,466.165009 532.725525,469.552765 539.736145,473.333832 &#xA;&#x9;C536.499146,474.387207 533.589417,475.393799 530.595459,475.930237 &#xA;&#x9;C515.286499,478.673035 499.985809,481.485474 484.624054,483.903961 &#xA;&#x9;C469.710358,486.251923 454.726135,488.152039 439.477051,490.228943 &#xA;&#x9;C438.600281,490.119202 438.019379,490.029388 437.438446,489.939575 &#xA;&#x9;C423.771210,477.606750 409.783478,465.605713 396.549225,452.824524 &#xA;&#x9;C387.697876,444.276245 379.775635,434.742126 371.695343,425.425629 &#xA;&#x9;C362.522034,414.848938 353.640137,404.019653 344.607880,393.320160 &#xA;&#x9;C344.309692,392.966919 343.754242,392.830811 343.357605,392.169647 &#xA;&#x9;C343.610809,391.210907 343.825134,390.675995 344.445190,390.101562 &#xA;&#x9;C357.589294,385.723877 370.327637,381.385651 383.065979,377.047455 &#xA;z"></path>
<path fill="#5D44E0" opacity="1.000000" stroke="none" d="&#xA;M756.017944,297.858765 &#xA;&#x9;C743.646851,293.609253 731.372314,289.045441 718.874878,285.207153 &#xA;&#x9;C708.393616,281.988037 697.706726,279.377441 687.011414,276.932556 &#xA;&#x9;C675.512390,274.304016 663.939819,271.938843 652.319824,269.915344 &#xA;&#x9;C642.582886,268.219788 632.764160,266.821655 622.923706,265.930695 &#xA;&#x9;C605.127502,264.319489 587.302185,262.940369 569.463135,261.914978 &#xA;&#x9;C548.630676,260.717499 527.770508,260.002472 506.720856,258.728058 &#xA;&#x9;C507.316620,258.177277 508.156830,258.077698 508.904785,257.760590 &#xA;&#x9;C519.219543,253.387360 529.471924,248.862610 539.842773,244.627716 &#xA;&#x9;C547.818054,241.371063 555.938477,238.470001 563.994385,235.410828 &#xA;&#x9;C565.647156,235.299744 567.299866,235.188629 569.353882,235.085022 &#xA;&#x9;C583.380188,235.728134 597.029968,236.043579 610.623291,237.091522 &#xA;&#x9;C623.631592,238.094376 636.600464,239.706833 649.549194,241.346970 &#xA;&#x9;C656.892151,242.277084 664.224304,243.512024 671.446960,245.122742 &#xA;&#x9;C683.393860,247.786972 695.252075,250.850708 707.140137,253.776703 &#xA;&#x9;C712.730530,255.152664 718.366821,256.390350 723.872131,258.054871 &#xA;&#x9;C738.917358,262.603790 754.207886,266.560699 768.833862,272.218872 &#xA;&#x9;C785.604492,278.706696 801.771667,286.757172 818.174744,294.186646 &#xA;&#x9;C819.175171,294.639771 819.945374,295.601044 820.586304,296.638275 &#xA;&#x9;C799.889648,297.316742 779.429382,297.682800 758.599243,298.035187 &#xA;&#x9;C757.492249,297.967255 756.755127,297.912994 756.017944,297.858765 &#xA;z"></path>
<path fill="#D67930" opacity="1.000000" stroke="none" d="&#xA;M439.772858,490.248840 &#xA;&#x9;C454.726135,488.152039 469.710358,486.251923 484.624054,483.903961 &#xA;&#x9;C499.985809,481.485474 515.286499,478.673035 530.595459,475.930237 &#xA;&#x9;C533.589417,475.393799 536.499146,474.387207 540.042114,473.320984 &#xA;&#x9;C541.037781,473.112610 541.439087,473.180817 541.840332,473.249023 &#xA;&#x9;C579.072632,489.267151 617.626709,500.933533 657.776367,508.604736 &#xA;&#x9;C650.503113,510.236969 642.918640,511.630707 635.335510,513.031494 &#xA;&#x9;C625.671509,514.816711 616.028320,516.725098 606.337036,518.346802 &#xA;&#x9;C601.449646,519.164673 596.479187,519.499512 591.540710,519.996643 &#xA;&#x9;C578.584778,521.300659 565.625854,522.575256 552.667603,523.855713 &#xA;&#x9;C552.005920,523.921143 551.339294,523.944824 550.674255,523.967102 &#xA;&#x9;C530.018005,524.656616 509.361664,525.343506 488.219238,526.093811 &#xA;&#x9;C487.323944,526.069153 486.914734,525.981628 486.175903,525.462402 &#xA;&#x9;C485.337341,524.675781 484.828918,524.320129 484.319397,523.966064 &#xA;&#x9;C472.516113,515.764404 460.613647,507.699921 448.970459,499.277039 &#xA;&#x9;C445.528687,496.787262 442.818359,493.286377 439.772858,490.248840 &#xA;z"></path>
<path fill="#8FFE53" opacity="1.000000" stroke="none" d="&#xA;M968.124023,316.025208 &#xA;&#x9;C968.501160,315.995056 968.878357,315.964874 969.911255,316.095673 &#xA;&#x9;C975.568970,317.611725 980.612671,318.830841 985.562317,320.355591 &#xA;&#x9;C992.047546,322.353424 998.424561,324.702850 1004.910461,326.698181 &#xA;&#x9;C1012.062561,328.898438 1019.285217,330.868988 1026.426025,333.190308 &#xA;&#x9;C1026.344727,333.777740 1026.314453,334.114441 1026.284058,334.451141 &#xA;&#x9;C1020.172607,338.783173 1014.010803,343.046265 1007.962097,347.464172 &#xA;&#x9;C999.875366,353.370544 992.027893,359.615540 983.802979,365.318970 &#xA;&#x9;C972.378357,373.241211 960.702087,380.800781 949.118408,388.492889 &#xA;&#x9;C948.582275,388.848969 947.898987,388.983551 946.865967,389.442383 &#xA;&#x9;C946.447693,389.663483 946.157043,389.649628 946.027466,389.335632 &#xA;&#x9;C945.090393,388.023285 944.377319,386.927094 943.460022,386.042694 &#xA;&#x9;C938.202515,380.974030 933.036682,375.797424 927.573914,370.957611 &#xA;&#x9;C919.528015,363.829285 911.258606,356.953308 903.038757,349.663635 &#xA;&#x9;C902.960754,348.945923 902.928406,348.534454 903.259277,348.008331 &#xA;&#x9;C905.794067,347.125519 908.085022,346.590088 910.116211,345.548157 &#xA;&#x9;C918.184082,341.409546 926.116638,337.006104 934.200745,332.900330 &#xA;&#x9;C945.460876,327.181519 956.811890,321.641663 968.124023,316.025208 &#xA;z"></path>
<path fill="#90FE55" opacity="1.000000" stroke="none" d="&#xA;M1025.228271,286.341370 &#xA;&#x9;C1035.830200,280.667389 1046.448486,275.023987 1057.028687,269.309723 &#xA;&#x9;C1065.450562,264.761108 1073.869141,260.203003 1082.209351,255.507355 &#xA;&#x9;C1090.550781,250.811035 1098.755493,245.872238 1107.090088,241.163574 &#xA;&#x9;C1114.465698,236.996613 1121.986694,233.086349 1129.351318,228.900803 &#xA;&#x9;C1135.283081,225.529617 1141.054565,221.877319 1146.951172,218.442780 &#xA;&#x9;C1148.182617,217.725494 1149.651367,217.415726 1151.299438,217.299225 &#xA;&#x9;C1122.708740,250.903259 1090.393677,280.614624 1056.481201,309.546417 &#xA;&#x9;C1055.382446,309.947418 1054.795776,310.018311 1054.114746,309.740387 &#xA;&#x9;C1048.588379,304.944153 1043.188354,300.457062 1037.714233,296.062317 &#xA;&#x9;C1033.601562,292.760529 1029.393799,289.577362 1025.228271,286.341370 &#xA;z"></path>
<path fill="#90FE55" opacity="1.000000" stroke="none" d="&#xA;M439.477051,490.228912 &#xA;&#x9;C442.818359,493.286377 445.528687,496.787262 448.970459,499.277039 &#xA;&#x9;C460.613647,507.699921 472.516113,515.764404 484.319397,523.966064 &#xA;&#x9;C484.828918,524.320129 485.337341,524.675781 485.877533,525.362793 &#xA;&#x9;C473.216827,524.983337 460.523071,524.302612 447.833649,523.548645 &#xA;&#x9;C440.198273,523.095032 432.547607,522.742188 424.943085,521.961670 &#xA;&#x9;C412.774780,520.712830 400.591064,519.462585 388.503113,517.625488 &#xA;&#x9;C376.318390,515.773560 364.226501,513.286865 352.126953,510.910248 &#xA;&#x9;C347.407227,509.983154 342.777527,508.597504 337.906372,506.478607 &#xA;&#x9;C342.511597,505.684113 347.101410,504.782623 351.725037,504.115753 &#xA;&#x9;C364.125031,502.327362 376.554779,500.740814 388.944397,498.885406 &#xA;&#x9;C403.729095,496.671326 418.488068,494.283966 433.245544,491.893555 &#xA;&#x9;C434.456696,491.697388 435.570862,490.902405 437.084259,490.162598 &#xA;&#x9;C438.019379,490.029388 438.600281,490.119202 439.477051,490.228912 &#xA;z"></path>
<path fill="#FD5468" opacity="1.000000" stroke="none" d="&#xA;M344.039429,390.141052 &#xA;&#x9;C343.825134,390.675995 343.610809,391.210907 343.142242,391.899261 &#xA;&#x9;C335.627716,394.506287 328.337921,396.876617 321.115295,399.436401 &#xA;&#x9;C313.603180,402.098755 306.140289,404.902527 298.683899,407.718658 &#xA;&#x9;C285.587738,412.664825 272.528046,417.707672 259.424072,422.632935 &#xA;&#x9;C250.317474,426.055786 241.162354,429.349548 232.028915,432.700958 &#xA;&#x9;C231.808075,432.276184 231.587250,431.851379 231.366409,431.426575 &#xA;&#x9;C241.682602,423.391083 252.004868,415.363403 262.313263,407.317932 &#xA;&#x9;C272.371979,399.467316 282.315735,391.464752 292.503296,383.785431 &#xA;&#x9;C299.110413,378.805054 306.086761,374.316620 312.852386,369.543518 &#xA;&#x9;C315.739990,367.506317 318.512085,365.305389 321.951111,363.293030 &#xA;&#x9;C328.082184,371.134918 333.513916,378.925842 339.186066,386.537628 &#xA;&#x9;C340.339172,388.085052 342.398102,388.957458 344.039429,390.141052 &#xA;z"></path>
<path fill="#FC5468" opacity="1.000000" stroke="none" d="&#xA;M1054.209229,310.089172 &#xA;&#x9;C1054.795776,310.018311 1055.382446,309.947418 1056.254639,309.821930 &#xA;&#x9;C1061.517090,314.309845 1066.580444,318.762024 1071.452026,323.414886 &#xA;&#x9;C1080.009155,331.587799 1088.596924,339.737976 1096.892578,348.172180 &#xA;&#x9;C1104.003662,355.401947 1110.917603,362.848267 1117.553589,370.514771 &#xA;&#x9;C1122.545044,376.281342 1126.958374,382.548340 1131.629028,388.592560 &#xA;&#x9;C1131.229126,388.980225 1130.829346,389.367889 1130.429443,389.755554 &#xA;&#x9;C1125.531982,386.623962 1120.648071,383.471161 1115.734131,380.365692 &#xA;&#x9;C1108.122070,375.555023 1100.630981,370.530640 1092.830933,366.044952 &#xA;&#x9;C1082.322632,360.001862 1071.677002,354.174042 1060.882202,348.661591 &#xA;&#x9;C1054.231201,345.265320 1047.229492,342.538818 1040.313965,339.684174 &#xA;&#x9;C1035.947144,337.881561 1031.448975,336.397217 1026.646851,334.610657 &#xA;&#x9;C1026.314453,334.114441 1026.344727,333.777740 1026.707886,333.063049 &#xA;&#x9;C1033.394043,327.779236 1039.829956,322.975342 1046.064087,317.922668 &#xA;&#x9;C1048.980103,315.559387 1051.506348,312.715332 1054.209229,310.089172 &#xA;z"></path>
<path fill="#8AD321" opacity="1.000000" stroke="none" d="&#xA;M1054.114746,309.740417 &#xA;&#x9;C1051.506348,312.715332 1048.980103,315.559387 1046.064087,317.922668 &#xA;&#x9;C1039.829956,322.975342 1033.394043,327.779236 1026.759033,332.812317 &#xA;&#x9;C1019.285217,330.868988 1012.062561,328.898438 1004.910461,326.698181 &#xA;&#x9;C998.424561,324.702850 992.047546,322.353424 985.562317,320.355591 &#xA;&#x9;C980.612671,318.830841 975.568970,317.611725 970.195129,316.098877 &#xA;&#x9;C972.905762,314.003876 975.863831,311.822418 979.094604,310.175995 &#xA;&#x9;C988.142273,305.565338 997.377319,301.320099 1006.391663,296.647461 &#xA;&#x9;C1012.289062,293.590515 1017.930908,290.040710 1023.935303,286.468506 &#xA;&#x9;C1024.358765,286.227570 1024.533936,286.229828 1024.968628,286.286743 &#xA;&#x9;C1029.393799,289.577362 1033.601562,292.760529 1037.714233,296.062317 &#xA;&#x9;C1043.188354,300.457062 1048.588379,304.944153 1054.114746,309.740417 &#xA;z"></path>
<path fill="#6278FE" opacity="1.000000" stroke="none" d="&#xA;M563.536926,235.302704 &#xA;&#x9;C555.938477,238.470001 547.818054,241.371063 539.842773,244.627716 &#xA;&#x9;C529.471924,248.862610 519.219543,253.387360 508.904785,257.760590 &#xA;&#x9;C508.156830,258.077698 507.316620,258.177277 506.270813,258.633850 &#xA;&#x9;C505.328369,258.973053 504.634460,259.056305 503.594574,259.161438 &#xA;&#x9;C494.781525,258.780273 486.283722,258.699280 477.854950,257.894653 &#xA;&#x9;C466.700470,256.829803 455.507080,255.698669 444.505920,253.652390 &#xA;&#x9;C435.754456,252.024597 427.266266,248.981293 418.626190,245.474594 &#xA;&#x9;C424.861664,244.712814 431.090271,243.888840 437.333984,243.202087 &#xA;&#x9;C450.784241,241.722748 464.229279,240.174713 477.700897,238.916763 &#xA;&#x9;C490.354095,237.735245 503.023285,236.508743 515.713501,235.994873 &#xA;&#x9;C531.487122,235.356171 547.289490,235.429047 563.536926,235.302704 &#xA;z"></path>
<path fill="#FB786B" opacity="1.000000" stroke="none" d="&#xA;M347.651123,346.115326 &#xA;&#x9;C348.021393,346.157257 348.012848,346.588593 347.632294,346.820496 &#xA;&#x9;C343.968903,348.869019 340.632935,350.596863 337.415344,352.522552 &#xA;&#x9;C332.253082,355.612183 327.169220,358.832794 322.052216,361.998047 &#xA;&#x9;C318.714142,357.538361 315.049561,353.283600 312.098663,348.580963 &#xA;&#x9;C302.899323,333.920532 293.803741,319.188782 285.009766,304.283020 &#xA;&#x9;C280.911896,297.337158 277.601715,289.926636 273.970764,282.363586 &#xA;&#x9;C274.007050,282.000488 273.976105,282.040192 273.976105,282.040192 &#xA;&#x9;C276.861084,284.025146 280.015808,285.712555 282.587128,288.043518 &#xA;&#x9;C299.047180,302.964874 315.333405,318.077850 331.780609,333.013519 &#xA;&#x9;C336.778809,337.552399 342.104950,341.730225 347.651123,346.115326 &#xA;z"></path>
<path fill="#FC4138" opacity="1.000000" stroke="none" d="&#xA;M322.048737,362.252563 &#xA;&#x9;C327.169220,358.832794 332.253082,355.612183 337.415344,352.522552 &#xA;&#x9;C340.632935,350.596863 343.968903,348.869019 347.623352,347.036011 &#xA;&#x9;C359.229980,356.308746 370.467773,365.594543 381.690491,374.898499 &#xA;&#x9;C382.175568,375.300629 382.521729,375.870331 382.999298,376.704712 &#xA;&#x9;C370.327637,381.385651 357.589294,385.723877 344.445190,390.101562 &#xA;&#x9;C342.398102,388.957458 340.339172,388.085052 339.186066,386.537628 &#xA;&#x9;C333.513916,378.925842 328.082184,371.134918 322.291992,363.211365 &#xA;&#x9;C322.027344,362.846008 322.036316,362.676575 322.048737,362.252563 &#xA;z"></path>
<path fill="#3D7AD2" opacity="1.000000" stroke="none" d="&#xA;M903.084412,349.969818 &#xA;&#x9;C911.258606,356.953308 919.528015,363.829285 927.573914,370.957611 &#xA;&#x9;C933.036682,375.797424 938.202515,380.974030 943.460022,386.042694 &#xA;&#x9;C944.377319,386.927094 945.090393,388.023285 945.801880,389.551483 &#xA;&#x9;C945.090027,390.554474 944.500488,391.067535 943.854004,391.494293 &#xA;&#x9;C939.616028,394.292023 935.365723,397.071136 931.119507,399.856323 &#xA;&#x9;C931.119507,399.856323 930.767273,399.895203 930.593262,399.872375 &#xA;&#x9;C926.180603,396.444397 922.064331,392.871979 917.680542,389.665314 &#xA;&#x9;C904.451172,379.988190 891.117920,370.453308 878.142090,360.420471 &#xA;&#x9;C880.267151,359.151123 882.044312,358.246765 883.888855,357.511444 &#xA;&#x9;C890.274719,354.965820 896.684021,352.479034 903.084412,349.969818 &#xA;z"></path>
<path fill="#6379FC" opacity="1.000000" stroke="none" d="&#xA;M931.372498,400.088043 &#xA;&#x9;C935.365723,397.071136 939.616028,394.292023 943.854004,391.494293 &#xA;&#x9;C944.500488,391.067535 945.090027,390.554474 945.931458,389.865479 &#xA;&#x9;C946.157043,389.649628 946.447693,389.663483 946.592163,389.656586 &#xA;&#x9;C963.826599,408.351776 980.187744,427.595093 992.914368,449.537262 &#xA;&#x9;C992.434204,449.943787 991.954041,450.350342 991.473877,450.756897 &#xA;&#x9;C985.221008,445.260010 979.055969,439.658997 972.695312,434.289825 &#xA;&#x9;C962.187256,425.419769 951.558838,416.692200 940.968201,407.920227 &#xA;&#x9;C937.876587,405.359467 934.740967,402.851776 931.372498,400.088043 &#xA;z"></path>
<path fill="#FB786B" opacity="1.000000" stroke="none" d="&#xA;M274.026306,281.984314 &#xA;&#x9;C273.903931,281.833282 273.762299,281.698364 273.620636,281.563477 &#xA;&#x9;C273.708862,281.619751 273.797058,281.676025 273.930695,281.886261 &#xA;&#x9;C273.976105,282.040192 274.007050,282.000488 274.026306,281.984314 &#xA;z"></path>
<path fill="#FDFDFC" opacity="1.000000" stroke="none" d="&#xA;M967.885742,315.869995 &#xA;&#x9;C956.811890,321.641663 945.460876,327.181519 934.200745,332.900330 &#xA;&#x9;C926.116638,337.006104 918.184082,341.409546 910.116211,345.548157 &#xA;&#x9;C908.085022,346.590088 905.794067,347.125519 902.899353,347.961121 &#xA;&#x9;C900.693176,347.321960 899.048096,346.834198 897.752502,345.874542 &#xA;&#x9;C886.596252,337.611145 875.869263,328.706238 864.293701,321.087463 &#xA;&#x9;C851.328918,312.554321 837.612671,305.162689 824.223450,297.274292 &#xA;&#x9;C836.032166,297.616699 847.864075,297.610809 859.643494,298.394135 &#xA;&#x9;C872.850952,299.272430 886.070679,300.434692 899.176270,302.256165 &#xA;&#x9;C915.152649,304.476624 931.052002,307.318054 946.911011,310.284790 &#xA;&#x9;C953.916565,311.595337 960.740845,313.875092 967.885742,315.869995 &#xA;z"></path>
<path fill="#6077FE" opacity="1.000000" stroke="none" d="&#xA;M823.864380,297.193604 &#xA;&#x9;C837.612671,305.162689 851.328918,312.554321 864.293701,321.087463 &#xA;&#x9;C875.869263,328.706238 886.596252,337.611145 897.752502,345.874542 &#xA;&#x9;C899.048096,346.834198 900.693176,347.321960 902.536194,348.075745 &#xA;&#x9;C902.928406,348.534454 902.960754,348.945923 903.038757,349.663635 &#xA;&#x9;C896.684021,352.479034 890.274719,354.965820 883.888855,357.511444 &#xA;&#x9;C882.044312,358.246765 880.267151,359.151123 878.081177,360.059235 &#xA;&#x9;C877.134033,360.096649 876.564819,360.052795 875.450439,359.722473 &#xA;&#x9;C866.876343,354.302673 858.905151,349.075745 850.799805,344.065826 &#xA;&#x9;C844.462097,340.148499 838.090210,336.247894 831.496277,332.792694 &#xA;&#x9;C822.001587,327.817566 812.368774,323.088135 802.654907,318.553802 &#xA;&#x9;C789.445740,312.387970 776.096680,306.522308 762.831665,300.475128 &#xA;&#x9;C761.460449,299.850006 760.252686,298.866241 758.969116,298.048889 &#xA;&#x9;C779.429382,297.682800 799.889648,297.316742 820.843689,296.890869 &#xA;&#x9;C822.060059,296.925049 822.782715,297.018982 823.864380,297.193604 &#xA;z"></path>
<path fill="#FFFFFE" opacity="1.000000" stroke="none" d="&#xA;M758.599243,298.035187 &#xA;&#x9;C760.252686,298.866241 761.460449,299.850006 762.831665,300.475128 &#xA;&#x9;C776.096680,306.522308 789.445740,312.387970 802.654907,318.553802 &#xA;&#x9;C812.368774,323.088135 822.001587,327.817566 831.496277,332.792694 &#xA;&#x9;C838.090210,336.247894 844.462097,340.148499 850.799805,344.065826 &#xA;&#x9;C858.905151,349.075745 866.876343,354.302673 875.164917,359.699219 &#xA;&#x9;C873.291138,361.579559 871.366394,363.658081 868.987976,364.733093 &#xA;&#x9;C859.325500,369.100616 849.499939,373.105621 839.780762,377.350159 &#xA;&#x9;C831.735840,380.863525 823.805481,384.642029 815.732117,388.086853 &#xA;&#x9;C808.528137,391.160797 801.195801,393.933441 793.923889,396.848541 &#xA;&#x9;C782.255432,401.526062 770.635071,406.327667 758.908447,410.854218 &#xA;&#x9;C750.513184,414.094849 741.954834,416.910431 733.510559,420.027466 &#xA;&#x9;C724.978455,423.176941 716.533142,426.563629 707.979370,429.651520 &#xA;&#x9;C703.346680,431.323914 698.577820,432.625580 693.851746,434.031708 &#xA;&#x9;C682.840759,437.307678 671.845825,440.641937 660.793884,443.774597 &#xA;&#x9;C647.106262,447.654388 633.399902,451.477234 619.640625,455.092438 &#xA;&#x9;C608.897461,457.915100 598.093262,460.525360 587.257874,462.971832 &#xA;&#x9;C574.601562,465.829529 561.876221,468.380127 549.195374,471.131165 &#xA;&#x9;C546.987854,471.610077 544.852539,472.421448 542.262085,473.164124 &#xA;&#x9;C541.439087,473.180817 541.037781,473.112610 540.330566,473.057312 &#xA;&#x9;C532.725525,469.552765 525.360413,466.165009 518.144104,462.485229 &#xA;&#x9;C509.076324,457.861389 500.091675,453.070068 491.143585,448.217346 &#xA;&#x9;C483.270264,443.947449 475.364960,439.710876 467.710388,435.069397 &#xA;&#x9;C456.480042,428.259735 445.308624,421.329376 434.395538,414.026886 &#xA;&#x9;C424.199158,407.203888 414.294250,399.934753 404.410339,392.659119 &#xA;&#x9;C397.865387,387.841309 391.583710,382.665833 385.073425,377.316528 &#xA;&#x9;C392.216858,374.614777 399.483795,372.285187 406.722015,369.869690 &#xA;&#x9;C416.104736,366.738647 425.440155,363.464081 434.843994,360.398804 &#xA;&#x9;C439.992462,358.720612 445.217346,357.262421 450.447388,355.851685 &#xA;&#x9;C462.626312,352.566620 474.825928,349.358002 487.023193,346.141235 &#xA;&#x9;C501.391266,342.351990 515.737183,338.473572 530.146545,334.847778 &#xA;&#x9;C541.263184,332.050476 552.430420,329.433075 563.634155,327.008453 &#xA;&#x9;C576.956543,324.125275 590.327759,321.461365 603.704285,318.837189 &#xA;&#x9;C616.078125,316.409698 628.464600,314.031799 640.887695,311.875000 &#xA;&#x9;C649.962646,310.299438 659.093689,309.027161 668.222229,307.784851 &#xA;&#x9;C678.666199,306.363464 689.113892,304.915955 699.598022,303.855988 &#xA;&#x9;C715.056702,302.293121 730.553345,301.108246 746.023438,299.652252 &#xA;&#x9;C749.093201,299.363312 752.116272,298.577301 755.589355,297.939636 &#xA;&#x9;C756.755127,297.912994 757.492249,297.967255 758.599243,298.035187 &#xA;z"></path>
</svg>